<svg width="0" height="0" class="hidden">
  <symbol version="1.1" xml:space="preserve" xmlns="http://www.w3.org/2000/svg" xmlnsSerif="http://www.serif.com/"
    xmlns:xlink="http://www.w3.org/1999/xlink" viewBox="0 0 682.66669 682.66669" id="fb">
    <path
      d="m 308.66668,681.1576 -12,-1.14871 -15.33334,-2.71465 -15.33333,-2.71467 -12.29159,-3.32016 -12.29159,-3.32016 -13.5282,-4.70885 -13.52818,-4.70886 -13.51355,-6.06526 -13.51356,-6.06528 -14,-8.02703 -14,-8.02703 -12.50387,-8.68585 -12.50387,-8.68586 -11.66931,-9.71237 -11.66932,-9.71239 -12.300644,-12.43689 -12.30064,-12.43689 -10.499402,-13.01134 -10.499402,-13.01132 -7.793468,-11.65535 -7.793467,-11.65533 -6.86724,-12.25213 -6.86724,-12.25215 -6.201626,-13.74785 -6.201626,-13.74787 -6.38593,-19.33333 -6.38593,-19.33334 -3.3289601,-16 -3.3289605,-16 -1.7672235,-12.66667 -1.76722353,-12.66666 v -30.00001 -30 l 1.76722353,-12.66666 1.7672235,-12.66667 3.3223897,-16 3.3223899,-16 5.397192,-16.66667 5.397192,-16.66667 6.374194,-14.87964 6.374193,-14.87964 7.571542,-13.67566 7.57154,-13.67568 7.911907,-11.7667 7.911908,-11.76669 L 75.869875,127.01133 86.352867,114 98.176435,101.96681 110,89.933622 122.16281,79.817537 134.3256,69.701452 l 12.80545,-8.928026 12.80542,-8.928026 13.82852,-7.835116 13.82854,-7.835115 13.63324,-6.127273 13.63325,-6.127274 17.14701,-5.873307 17.14703,-5.873308 15.08964,-3.3544634 15.08964,-3.3544631 15.33334,-2.3644123 15.33333,-2.364412 30.66667,-0.0276008 30.66667,-0.0276008 12.66666,1.77569 12.66667,1.7756899 15.62103,3.256826 15.62101,3.2568255 17.019,5.440875 17.019,5.440873 15.35999,6.579754 15.35997,6.579752 13.33334,7.501703 13.33333,7.501701 11.65533,7.798069 11.65535,7.798069 13.01132,10.478926 13.01134,10.478926 13.49488,13.397795 13.49488,13.397791 10.7731,13.39322 10.77311,13.39321 6.54292,9.7033 6.54292,9.70329 8.05126,14 8.05124,14 6.30674,14 6.30674,14 6.38593,19.33333 6.38592,19.33334 3.32896,16 3.32896,16 1.75351,12.66667 1.7535,12.66666 v 30.00001 30 l -1.7404,12.66666 -1.74038,12.66667 -3.82051,17.63996 -3.82051,17.63997 -5.9194,17.69337 -5.9194,17.69337 -5.6949,12.66667 -5.69491,12.66666 -6.61455,12 -6.61456,12 -8.2732,12.66667 -8.2732,12.66667 -10.74547,13.34797 -10.74546,13.34798 -13.82887,13.79236 -13.82885,13.79236 -12.96338,10.46098 -12.96337,10.46099 -9.7033,6.53997 -9.70329,6.53999 -13.08617,7.54787 -13.08616,7.54788 -14.38604,6.57219 -14.38606,6.57217 -15.676,5.40531 -15.67599,5.40532 h -0.51846 -0.51846 v -126.00001 -126 h 36.66667 36.66667 v -1.122 -1.122 l 5.33333,-40.92414 5.33334,-40.92413 v -0.62054 -0.62053 h -42 -42.00001 v -33.758 -33.758 l 2.07347,-6.98213 2.07348,-6.98215 4.9607,-4.96069 4.9607,-4.96071 7.11894,-2.29916 7.11894,-2.29916 h 29.18022 29.18022 v -38.53836 -38.53836 l -14.33333,-1.12242 -14.33333,-1.12241 -29.33334,-0.001 -29.33333,-0.001 -11.33334,3.07778 -11.33333,3.0778 -9.55081,4.5786 -9.5508,4.57862 -7.78254,6.22616 -7.78252,6.22614 -6.3301,7.44614 -6.33011,7.44613 -5.30864,10.66667 -5.30864,10.66666 -2.93988,10.66667 -2.93987,10.66667 -0.7547,44.66667 -0.75472,44.66666 -36.33334,0.35476 -36.33333,0.35476 v 42.64525 42.64524 h 36.66666 36.66667 v 132.66667 132.66667 l -13.66667,-0.1802 -13.66666,-0.1802 z" />
  </symbol>
  <symbol version="1.1" xml:space="preserve" xmlns="http://www.w3.org/2000/svg" xmlnsSerif="http://www.serif.com/"
    xmlns:xlink="http://www.w3.org/1999/xlink" viewBox="0 0 682.66669 682.66669" id="in">
    <path
      d="m 317.33334,681.19452 -15.33333,-1.09135 -14,-2.16924 -14,-2.16923 -17.33333,-4.43821 -17.33334,-4.43821 -12.66667,-4.62738 -12.66666,-4.62738 -12.08959,-5.34983 -12.08959,-5.34984 -12.57708,-6.96671 -12.57708,-6.96671 -12,-8.01278 -12,-8.01278 L 128,606.90374 115.33334,596.83259 100.58371,582.08298 85.834091,567.33335 75.778527,554.66669 65.722964,542.00002 l -7.967075,-12 -7.967074,-12 -7.414558,-13.33334 -7.414556,-13.33333 -6.222535,-14.3622 -6.222535,-14.36221 -5.125066,-15.63779 -5.125067,-15.6378 L 8.845706,416.00001 5.4269141,400.66668 3.207812,384.00001 0.98870978,367.33335 v -26.00001 -26 L 3.207812,298.66668 5.4269141,282.00001 8.845706,266.66668 l 3.418792,-15.33334 5.125067,-15.6378 5.125066,-15.63779 6.22997,-14.36221 6.22997,-14.3622 7.339508,-13.30372 7.339508,-13.30373 8.000246,-12.0296 8.000245,-12.02962 L 75.744085,128 85.834091,115.33334 100.58371,100.58371 115.33334,85.834091 128,75.778527 l 12.66667,-10.055563 12.11136,-8.079949 12.11135,-8.079948 13.22199,-7.294248 13.22197,-7.294248 14.3622,-6.22997 14.36221,-6.22997 15.63779,-5.125066 15.6378,-5.125067 15.33334,-3.418792 15.33333,-3.4187919 16.66667,-2.2191021 16.66666,-2.21910222 h 26 26.00001 l 16.66666,2.21910222 16.66667,2.2191021 15.33333,3.4043075 15.33334,3.4043074 17.33333,5.787374 17.33334,5.787372 14,6.209163 14,6.209162 12,6.790167 12,6.790165 12,7.922574 12,7.922572 12.66667,10.090007 12.66666,10.090006 14.74963,14.749619 14.74961,14.74963 10.07115,12.66666 10.07113,12.66667 8.01278,12 8.01278,12 6.96671,12.57708 6.96671,12.57708 5.34984,12.08959 5.34983,12.08959 4.51574,12.39716 4.51575,12.39716 3.97609,14.93617 3.97608,14.93618 2.60899,15.33333 2.60899,15.33333 1.39509,21 1.39509,21 -1.39509,21.00001 -1.39509,21 -2.60899,15.33333 -2.60899,15.33333 -3.97608,14.93618 -3.97609,14.93617 -4.51575,12.39716 -4.51574,12.39716 -5.40984,12.22594 -5.40983,12.22594 -6.97356,12.44072 -6.97355,12.44074 -7.96151,12 -7.9615,12 -10.05556,12.66667 -10.05558,12.66666 -14.74961,14.74963 -14.74963,14.74961 -12.66666,10.05558 -12.66667,10.05556 -12,7.9522 -12,7.95218 -12,6.80305 -12,6.80304 -12.66667,5.58965 -12.66667,5.58967 -12.39716,4.51574 -12.39716,4.51575 -14.93617,3.97609 -14.93618,3.97608 -15.33333,2.60024 -15.33333,2.60024 -20.4394,1.42452 -20.4394,1.42451 -4.89394,-0.19041 -4.89393,-0.19042 z m 113.49555,-145.2064 14.16222,-1.34301 10.50445,-2.64268 10.50446,-2.64268 12,-5.94521 12,-5.9452 8.161,-6.65575 8.161,-6.65575 6.36285,-8.41225 6.36287,-8.41224 5.12926,-10.66667 5.12927,-10.66666 2.69573,-10.60731 2.69572,-10.60731 1.4229,-15.59259 1.42289,-15.59258 -0.56445,-83.80011 -0.56445,-83.80011 -2.7333,-12 -2.73329,-12 -2.9905,-8 -2.99049,-8 -3.39476,-6 -3.39477,-6 -6.486,-8.2694 -6.48602,-8.2694 -8.2694,-6.52468 -8.2694,-6.5247 -6,-3.40888 -6,-3.40886 -9.58401,-3.40523 -9.58401,-3.40523 -11.74932,-2.39181 L 434.00001,146 h -92.66667 -92.66666 l -11.74933,2.39182 -11.74932,2.39181 -9.58401,3.43743 -9.58401,3.43743 -6,3.41536 -6,3.41534 -8.2694,6.486 -8.2694,6.48602 -6.52468,8.2694 -6.5247,8.2694 -3.40888,6 -3.40886,6 -3.40523,9.58401 -3.40523,9.58401 -2.39181,11.74932 L 146,248.66668 v 92.66666 92.66667 l 2.39182,11.74933 2.39181,11.74932 3.43743,9.58401 3.43743,9.58401 3.41536,6 3.41534,6 6.486,8.2694 6.48602,8.2694 8.2694,6.48602 8.2694,6.486 6,3.41534 6,3.41536 9.33333,3.3393 9.33333,3.33929 8,1.66513 8,1.66514 10.00001,0.97165 10,0.97166 78,0.18537 78,0.18539 z m -172.82888,-35.96184 -13.33333,-1.04609 -8.66667,-2.27033 -8.66667,-2.27034 -8.92603,-4.67937 -8.92602,-4.67937 -6.79651,-7.18631 -6.79652,-7.18631 -4.53893,-9.68741 -4.53894,-9.6874 -2.21913,-10 -2.21913,-10 -0.65708,-74 -0.6571,-74.00001 1.44627,-20 1.44628,-20 2.15036,-8 2.15037,-8 3.51682,-7.33333 3.51681,-7.33334 8.69091,-8.6909 8.6909,-8.69091 7.33334,-3.51681 7.33333,-3.51682 8,-2.15037 8,-2.15036 20,-1.44628 20,-1.44627 74.00001,0.6571 74,0.65708 10,2.21913 10,2.21913 9.6874,4.53894 9.68741,4.53893 7.37142,6.97157 7.37141,6.97159 5.23965,10.75096 5.23966,10.75096 2.3682,11.33333 2.36818,11.33334 v 87.33334 87.33333 l -2.3965,11.33334 -2.39652,11.33333 -4.5748,9.74464 -4.5748,9.74465 -7.95071,7.95071 -7.95071,7.95071 -9.74465,4.56612 -9.74464,4.56612 -10,2.22977 -10,2.22979 -80,0.37826 -80.00001,0.37827 z m 109.33334,-61.03124 9.33333,-2.527 8.7054,-4.16152 8.7054,-4.16153 8.7748,-6.6427 8.77481,-6.64269 4.93942,-5.76313 4.93941,-5.76312 4.88303,-7.33334 4.88302,-7.33333 4.2378,-11.33333 4.23779,-11.33334 1.65243,-10.39494 1.65244,-10.39495 -0.81809,-10.27172 -0.8181,-10.27172 -2.08996,-7.918 -2.08997,-7.91802 -2.9997,-7.42648 -2.99969,-7.42648 -5.24364,-7.98885 -5.24364,-7.98884 -8.04148,-8.04148 -8.04148,-8.04148 -7.95591,-5.22177 -7.9559,-5.22179 -9.06642,-3.6896 -9.06641,-3.6896 -10.79164,-2.04715 -10.79164,-2.04713 h -7.70542 -7.70541 l -10.79164,2.04713 -10.79164,2.04715 -9.06641,3.6896 -9.06642,3.6896 -7.28924,4.84364 -7.28924,4.84364 -5.76312,4.93941 -5.76313,4.93942 -6.67673,8.81354 -6.67674,8.81354 -4.67238,9.7066 -4.67239,9.70661 -2.53691,12.29339 -2.53691,12.2934 -0.0175,8.18604 -0.0175,8.18604 2.03072,10.70507 2.03071,10.70505 3.88653,9.42493 3.88654,9.42494 5.02917,7.68397 5.02917,7.68396 8.06666,8 8.06665,8 7.91265,5.24323 7.91266,5.24322 10.02782,3.89382 10.02784,3.89383 8.71311,1.82608 8.71311,1.82608 13.33333,-0.53544 13.33334,-0.53544 9.33333,-2.52702 z m -35.41633,-33.74564 -7.41632,-1.09095 -7.06878,-2.78625 -7.06878,-2.78625 -5.54542,-3.81535 -5.54542,-3.81535 -5.33634,-5.81096 -5.33634,-5.81094 -2.85304,-4.66667 -2.85304,-4.66667 -2.92356,-8.66666 -2.92356,-8.66667 v -11.33334 -11.33333 l 2.92356,-8.66667 2.92356,-8.66666 2.84407,-4.66667 2.84405,-4.66667 5.84036,-6.27852 5.84036,-6.27852 6.20215,-3.95108 6.20215,-3.95109 8.66666,-2.90503 8.66667,-2.90504 10.66827,-0.0564 10.66825,-0.0564 7.99842,2.29595 7.9984,2.29595 5.98049,3.46856 5.98051,3.46856 6.29801,5.89106 6.29803,5.89107 3.95108,6.20215 3.95109,6.20214 2.91385,8.66667 2.91386,8.66667 v 11.33333 11.33334 l -2.91386,8.66666 -2.91385,8.66667 -3.95109,6.20215 -3.95108,6.20214 -6.29803,5.89107 -6.29801,5.89107 -5.98051,3.46856 -5.98049,3.46856 -7.33334,1.99234 -7.33333,1.99236 -6.66667,0.61604 -6.66667,0.61604 -7.41632,-1.09094 z m 125.68074,-147.42619 3.59774,-1.8204 3.32665,-4.36147 3.32665,-4.36145 1.15484,-5.30662 1.15484,-5.3066 -1.17704,-5.76448 -1.17704,-5.76446 -5.13772,-5.13772 -5.13772,-5.13772 -5.76446,-1.17704 -5.76448,-1.17704 -5.33334,1.12334 -5.33333,1.12336 -3.25095,2.3716 -3.25095,2.3716 -2.50422,3.35414 -2.50423,3.35414 -1.17812,5.2236 -1.17812,5.22362 1.17596,5.23377 1.17595,5.23379 2.5064,3.35704 2.50638,3.35703 3.41468,2.54944 3.4147,2.54942 4.50292,1.05967 4.50293,1.05967 4.66667,-0.70491 4.66667,-0.70492 z" />
  </symbol>
  <symbol version="1.1" xml:space="preserve" xmlns="http://www.w3.org/2000/svg" xmlnsSerif="http://www.serif.com/"
    xmlns:xlink="http://www.w3.org/1999/xlink" viewBox="0 0 512 512" id="vk">
    <path
      d="m 235,510.98048 -9.5,-0.89239 -10,-1.62046 -10,-1.62047 -11.55213,-2.88839 -11.55213,-2.8884 -9.94787,-3.46432 -9.94787,-3.46432 -8.5,-3.62814 -8.5,-3.62813 -9.5,-5.04831 -9.5,-5.04831 -10,-6.52197 -10,-6.52196 L 98,457.12506 89.5,450.50521 78.616348,440.00261 67.732695,429.5 59.758199,420 51.783702,410.5 42.84216,397.0512 33.900619,383.60239 27.024366,369.5512 20.148112,355.5 16.602919,345.87073 13.057726,336.24146 10.083664,325.87073 7.1096016,315.5 l -1.9702567,-10 -1.9702567,-10 -1.2969153,-10 -1.29691527,-10 0.0845323,-21 0.0845323,-21 2.12838177,-14 2.1283817,-14 2.9431548,-11.5 2.9431545,-11.5 3.619771,-10.3908 3.619771,-10.3908 4.26976,-9.70182 4.269759,-9.70182 4.817794,-8.83836 4.817794,-8.83836 L 44.05563,113.06902 51.809215,101.5 59.770955,92 67.732695,82.5 78.616348,71.997394 89.5,61.494787 98,54.87494 l 8.5,-6.619847 10,-6.521966 10,-6.521967 9.51381,-5.068516 9.51382,-5.068515 10.62034,-4.44953 10.62035,-4.44953 10.87265,-3.514892 10.87264,-3.5148911 10.9932,-2.5306945 L 210.5,4.0838968 223,2.3691264 l 12.5,-1.71477051 21,-0.003561 21,-0.003561 12,1.72480401 12,1.7248041 11.39369,2.5339803 11.39369,2.5339802 11.94793,3.9947415 11.94792,3.994741 8.15839,3.480715 8.15838,3.480715 10.5,5.538596 10.5,5.538596 10,6.531093 10,6.531093 8.5,6.619847 8.5,6.619847 10.88365,10.502607 L 444.2673,82.5 l 7.9745,9.5 7.9745,9.5 9.00407,13.5 9.00407,13.5 7.27805,15 7.27806,15 3.07164,8.5 3.07164,8.5 3.43958,12 3.43958,12 2.07777,12.25325 2.07777,12.25325 1.1255,13.74675 1.1255,13.74675 -0.65797,13.5 -0.65796,13.5 -1.3693,10.53406 -1.3693,10.53405 -2.66844,11.96595 -2.66844,11.96594 -3.49659,10.86584 -3.4966,10.86584 -4.44953,10.62035 -4.44953,10.62034 -5.0497,9.51382 -5.0497,9.51381 -8.313,12.5 -8.31299,12.5 -7.96659,9.5 -7.96659,9.5 -10.88365,10.50261 -10.88365,10.5026 -8.5,6.61985 -8.5,6.61985 -10,6.52196 -10,6.52197 -9.51381,5.06852 -9.51382,5.06851 -10.75733,4.50692 -10.75734,4.50693 -12.3053,3.93393 -12.30531,3.93393 -10.42354,2.1694 -10.42355,2.1694 -10.5,1.41053 -10.5,1.41053 -17,0.45271 -17,0.45271 z m 174.29405,-156.36958 3.79405,-1.88059 1.45595,-2.8155 L 416,347.09932 v -3.08178 -3.08178 l -1.35932,-3.21788 -1.35931,-3.21788 -6.28931,-8.5 -6.28931,-8.5 -17.78738,-18.07094 -17.78738,-18.07093 -0.68329,-2.72244 -0.68329,-2.72243 1.71449,-4.48932 1.71448,-4.48931 15.24189,-20.71732 15.24189,-20.71731 4.81156,-7 4.81157,-7 3.84521,-8 3.84521,-8 0.6094,-4.51169 0.60941,-4.5117 -1.85326,-2.28766 -1.85326,-2.28765 -4,-0.9268 -4,-0.92679 -28.28212,-0.0238 -28.28212,-0.0239 -3.26348,1.36357 -3.26347,1.36357 -1.5213,2.38643 -1.52131,2.38643 -2.33228,6 -2.33227,6 -7.36874,14.5 -7.36874,14.5 -6.29021,8.76335 -6.29021,8.76334 -6.30451,7.04161 -6.30451,7.04162 -3.13041,-0.30496 -3.13041,-0.30496 -1.50696,-3 -1.50695,-3 -0.096,-34.144 -0.096,-34.144 -1.95803,-3.3526 -1.95802,-3.3526 -3.16943,-2.13588 -3.16944,-2.13588 -4.34778,-0.65199 -4.34779,-0.652 -23.92871,-0.0887 -23.92872,-0.0887 -4.20453,1.14944 -4.20453,1.14945 -3.14,2.64214 -3.14001,2.64214 -0.77406,2.08156 -0.77407,2.08156 0.45838,1.20514 0.45837,1.20514 5.32366,1.54763 5.32367,1.54763 2.56026,3.0427 2.56026,3.0427 1.08377,4.02483 1.08378,4.02483 0.13595,20.1797 0.13595,20.1797 -1.72094,6.93069 -1.72094,6.93069 -1.09493,1.31931 -1.09493,1.31931 h -2.4204 -2.42039 l -5.08906,-4.75 -5.08906,-4.75 -8.97543,-13.5 -8.97544,-13.5 -6.93911,-14.5 -6.93912,-14.5 -2.70355,-5.4515 L 162.5,184.597 158.09272,182.2985 153.68543,180 H 126.84272 100 l -2,2 -2,2 v 3.45067 3.45067 l 5.86544,12.79933 5.86545,12.79933 7.08403,14.13582 7.08404,14.13583 7.57078,13.17569 7.57079,13.1757 7.11719,10.68848 7.11719,10.68848 7.59863,10 7.59863,10 8.2265,8.08621 8.2265,8.0862 8.76932,6.23776 8.76932,6.23775 7.01809,3.36448 7.0181,3.36448 7.5,2.41911 7.5,2.4191 7,1.37446 7,1.37447 15.5,0.018 15.5,0.018 3.23307,-1.76693 3.23308,-1.76692 1.39967,-2.73308 1.39968,-2.73307 0.69326,-5.5 0.69326,-5.5 1.95787,-8.47161 1.95787,-8.47162 2.14043,-2.27838 2.14044,-2.27839 h 2.26058 2.26059 l 2.77277,1.0542 2.77276,1.05421 16.41254,16.93106 16.41254,16.93105 5.6021,2.74085 5.6021,2.74086 8.02769,0.66046 8.0277,0.66046 21,-0.14083 21,-0.14083 3.79405,-1.88059 z" />
  </symbol>
  <symbol id="tg" xmlns="http://www.w3.org/2000/svg" viewBox="0 0 512 512">
    <path
      d="M256,0C114.615,0,0,114.615,0,256S114.615,512,256,512,512,397.385,512,256,397.385,0,256,0ZM389.059,161.936,343.591,379a16.007,16.007,0,0,1-25.177,9.593l-66.136-48.861-40.068,37.8a5.429,5.429,0,0,1-7.74-.294l-.861-.946,6.962-67.375L336.055,194.266a3.358,3.358,0,0,0-4.061-5.317L171.515,290.519,102.4,267.307a9.393,9.393,0,0,1-.32-17.694L372.5,147.744A12.441,12.441,0,0,1,389.059,161.936Z">
    </path>
  </symbol>
</svg>